<svg width="48" height="48" viewBox="0 0 48 48" fill="none" xmlns="http://www.w3.org/2000/svg">
<g clip-path="url(#clip0_1342_1393)">
<path d="M2.6523 18.6594L2.65262 18.6595C2.79222 18.7164 2.93997 18.7447 3.08785 18.7447C3.24076 18.7447 3.39361 18.7143 3.53711 18.6535L3.5374 18.6534L7.74362 16.8784C7.74365 16.8784 7.74368 16.8783 7.74371 16.8783C8.33179 16.6299 8.6075 15.9518 8.35913 15.3635L8.35909 15.3634C8.11106 14.7752 7.43275 14.4996 6.84427 14.7477C6.84424 14.7477 6.84421 14.7477 6.84417 14.7477L5.81559 15.182L5.23676 15.4264L5.48946 14.8511C8.72136 7.49381 16.0339 2.65625 24.1706 2.65625C33.4736 2.65625 41.5975 8.94682 43.9266 17.9535C44.0615 18.4745 44.5305 18.8208 45.0451 18.8208C45.1405 18.8208 45.2381 18.8088 45.3355 18.7837L2.6523 18.6594ZM2.6523 18.6594C2.36824 18.5441 2.14181 18.3205 2.02252 18.038C2.02252 18.0379 2.02251 18.0379 2.02251 18.0379L0.247505 13.8317M2.6523 18.6594L0.247505 13.8317M3.08052 14.5974L2.85275 14.0575L2.37818 12.9326C2.12975 12.3445 1.45164 12.0687 0.86331 12.3168L3.08052 14.5974ZM3.08052 14.5974L3.31264 14.0594M3.08052 14.5974L3.31264 14.0594M3.31264 14.0594C6.8798 5.79093 15.0612 0.34375 24.1706 0.34375C34.5278 0.34375 43.5725 7.347 46.1653 17.3749C46.3252 17.993 45.9537 18.6237 45.3357 18.7837L3.31264 14.0594ZM0.247505 13.8317C-0.000582345 13.2437 0.274891 12.5653 0.86321 12.3168L0.247505 13.8317Z" fill="#1782C5" stroke="white" stroke-width="0.5"/>
<path d="M45.7893 29.8639L45.7893 29.864L47.5643 34.0699C47.5644 34.0699 47.5644 34.0699 47.5644 34.0699C47.8125 34.6584 47.5369 35.3364 46.9486 35.5848L46.9484 35.5849C46.8017 35.647 46.6492 35.6761 46.4998 35.6761C46.0481 35.6761 45.6199 35.4104 45.4337 34.9691L45.0195 33.9876L44.7896 33.4427L44.559 33.9873C41.0244 42.3344 32.8021 47.8431 23.6416 47.8431C13.2841 47.8431 4.23936 40.8399 1.64655 30.812L1.64654 30.812C1.48667 30.1939 1.85818 29.5631 2.47627 29.4032C3.09472 29.2439 3.72541 29.615 3.88525 30.2333L3.88525 30.2333C6.21432 39.24 14.3383 45.5306 23.6416 45.5306C31.907 45.5306 39.3219 40.5381 42.4729 32.9835L42.7083 32.4192L42.145 32.657L40.9676 33.1539L41.0648 33.3842L40.9676 33.1539C40.3791 33.4024 39.7008 33.1268 39.4528 32.5386L39.4527 32.5385C39.2043 31.9501 39.4802 31.2717 40.0681 31.0236L40.0682 31.0236L44.2745 29.2482L44.2745 29.2482C44.5569 29.129 44.8752 29.1269 45.1596 29.2422C45.4436 29.358 45.6702 29.5814 45.7893 29.8639Z" fill="#1782C5" stroke="white" stroke-width="0.5"/>
<path d="M21.1703 39.337L21.1708 39.3372C21.2982 39.3833 21.4304 39.4053 21.5617 39.4053C21.9001 39.4053 22.2291 39.2568 22.453 38.9859L22.6457 39.1452L22.453 38.9859L34.2333 24.7363C34.2333 24.7363 34.2333 24.7363 34.2333 24.7363C34.5188 24.3909 34.579 23.9121 34.3884 23.5067C34.1974 23.1017 33.79 22.8432 33.3424 22.8432H28.218H27.968V22.5932V9.84353C27.968 9.35574 27.6621 8.9206 27.2031 8.75525C26.7447 8.59035 26.2315 8.73086 25.9203 9.10682L14.1402 23.3564L14.1401 23.3564C13.8547 23.7014 13.7945 24.1804 13.985 24.5854L21.1703 39.337ZM21.1703 39.337C20.7114 39.172 20.4056 38.7369 20.4059 38.2492V38.2491V25.4994V25.2494M21.1703 39.337L20.4059 25.2494M20.4059 25.2494H20.1559M20.4059 25.2494H20.1559M20.1559 25.2494H15.0315C14.5838 25.2494 14.176 24.9908 13.9851 24.5855L20.1559 25.2494ZM17.8256 22.5276L17.4872 22.9369H18.0183H21.5617C22.2001 22.9369 22.718 23.4546 22.718 24.0932V34.3412V35.036L23.1607 34.5005L30.5475 25.565L30.8859 25.1557H30.3548H26.8117C26.1731 25.1557 25.6555 24.6381 25.6555 23.9994V13.7514V13.0566L25.2128 13.5921L17.8256 22.5276Z" fill="#1782C5" stroke="white" stroke-width="0.5"/>
</g>
<defs>
<clipPath id="clip0_1342_1393">
<rect width="48" height="48" fill="white"/>
</clipPath>
</defs>
</svg>
